<svg id="Layer_1" data-name="Layer 1" xmlns="http://www.w3.org/2000/svg" viewBox="0 0 1366 768"><defs><style>.cls-1{fill:#303030;}.cls-2{fill:#353535;}</style></defs><rect class="cls-1" width="1366" height="768"/><path class="cls-2" d="M116.35,291.61A122.24,122.24,0,0,1,123,331.5,122.51,122.51,0,0,1,.5,454H0V0H262.49A188.09,188.09,0,0,1,293,103C293,203.23,215,285.24,116.35,291.61Z"/><path class="cls-2" d="M1366,702.33V768H0V697.36a122.5,122.5,0,0,1,195.5,11.29A122.51,122.51,0,0,1,397,705a122.49,122.49,0,0,1,183-18.16,122.49,122.49,0,0,1,185.5,21.77A122.51,122.51,0,0,1,967,705a122.51,122.51,0,0,1,200.5,2.13,122.51,122.51,0,0,1,198.5-4.84Z"/><path class="cls-2" d="M1366,0V453.26a122.58,122.58,0,0,1-102.35-161.65C1165,285.24,1087,203.23,1087,103A188.09,188.09,0,0,1,1117.51,0Z"/></svg>